<svg id="OBJECTS" xmlns="http://www.w3.org/2000/svg" viewBox="0 0 341.76 222.44"><defs><style>.cls-1{font-size:45.7px;font-family:WorkSans-Black, WorkSans Black;font-weight:800;}.cls-1,.cls-11,.cls-3{fill:#313444;}.cls-2{letter-spacing:0em;}.cls-3{font-size:18.48px;font-family:MyriadPro-Regular, Myriad Pro;}.cls-4{letter-spacing:0.02em;}.cls-5{letter-spacing:0em;}.cls-6{letter-spacing:-0.04em;}.cls-7{letter-spacing:0em;}.cls-8{fill:#ff7300;}.cls-9{fill:#ef6b07;}.cls-10{fill:#ebebed;}.cls-12{fill:#c9c8cd;}.cls-13{fill:#848489;}.cls-14{fill:#fff;}.cls-15{fill:#ffce00;}.cls-16{fill:#232321;}.cls-17{fill:#cecece;}.cls-18{fill:#b3b3b3;}.cls-19{fill:#9a9896;}.cls-20{fill:#f5a200;}.cls-21{fill:#d98400;}.cls-22{fill:#6e6e6e;}.cls-23{fill:#8d8b8a;}</style></defs><title>404</title><text class="cls-1" transform="translate(39.52 197.37)">404 ER<tspan class="cls-2" x="127.1" y="0">R</tspan><tspan x="151.82" y="0">OR</tspan></text><text class="cls-3" transform="translate(49.57 217.82)">SOM<tspan class="cls-4" x="36.71" y="0">E</tspan><tspan class="cls-5" x="46.1" y="0">THING</tspan><tspan class="cls-6" x="95.85" y="0"> </tspan><tspan x="99.1" y="0">WENT</tspan><tspan class="cls-6" x="145.18" y="0"> </tspan><tspan x="148.43" y="0">W</tspan><tspan class="cls-7" x="164.07" y="0">R</tspan><tspan x="174.07" y="0">ONG</tspan></text><polygon class="cls-8" points="24.76 192.72 4.5 192.72 5.92 188.01 8.36 179.95 9.63 175.74 12.06 167.68 13.45 163.09 15.82 163.09 17.2 167.68 19.64 175.74 20.91 179.95 23.34 188.01 24.76 192.72"/><rect class="cls-9" y="192.22" width="29.27" height="3.85"/><polygon class="cls-10" points="19.64 175.74 9.63 175.74 12.06 167.68 17.2 167.68 19.64 175.74"/><polygon class="cls-10" points="23.34 188.01 5.92 188.01 8.36 179.95 20.91 179.95 23.34 188.01"/><polygon class="cls-8" points="337.26 194.64 317 194.64 318.42 189.93 320.85 181.88 322.13 177.66 324.56 169.61 325.94 165.02 328.31 165.02 329.7 169.61 332.13 177.66 333.4 181.88 335.84 189.93 337.26 194.64"/><rect class="cls-9" x="312.49" y="194.15" width="29.27" height="3.85"/><polygon class="cls-10" points="332.13 177.66 322.13 177.66 324.56 169.61 329.7 169.61 332.13 177.66"/><polygon class="cls-10" points="335.84 189.93 318.42 189.93 320.85 181.88 333.4 181.88 335.84 189.93"/><path class="cls-11" d="M342,252.55c10.77,2.45-11.5,6.48-28.75,2.71-20.57-4.49-42.93-4.3-45.63-.46s32.06,3.72,40.3,6.59c7.49,2.6-24,4.59-16.94,10,9,6.83,58.56,6,70.42,2,26.53-9,53.9-3,64-1.13,21.25,4,73.62-.91,34.49-7.2-19.4-3.12-16-6.28-1-8.09,24.37-2.95,2.28-7.81-15-6.31-4.59.39-8.35,1.68-17.25,2.1-7.75.37-16.64-.43-17.78-1.67-2.88-3.12,24-5.44,21.56-8.15-3.6-4-37.37-4.69-39.89-.58-2.74,4.49-13.59,6.38-30.84,4.88-12.94-1.12-23.5-.56-27.36,1.36S337.65,251.57,342,252.55Z" transform="translate(-202.09 -171.26)"/><rect class="cls-12" x="95.98" y="9.9" width="7.81" height="96.82"/><rect class="cls-12" x="233.4" y="9.9" width="7.81" height="96.82"/><rect class="cls-13" x="90.35" y="103.46" width="19.07" height="4.43"/><rect class="cls-13" x="227.77" y="103.46" width="19.07" height="4.43"/><rect class="cls-8" x="83.52" y="9.9" width="170.16" height="21.21"/><rect class="cls-8" x="83.52" y="44.04" width="170.16" height="21.21"/><polygon class="cls-14" points="227.77 9.9 233.66 20.51 239.53 31.11 252.46 31.11 246.59 20.51 240.7 9.9 227.77 9.9"/><polygon class="cls-14" points="229.19 44.04 235.01 54.65 240.82 65.25 253.58 65.25 247.77 54.65 241.96 44.04 229.19 44.04"/><polygon class="cls-14" points="189.49 9.9 196.09 20.51 202.68 31.11 217.2 31.11 210.6 20.51 204 9.9 189.49 9.9"/><polygon class="cls-14" points="192.9 44.04 198.96 54.65 205.01 65.25 218.32 65.25 212.26 54.65 206.2 44.04 192.9 44.04"/><polygon class="cls-14" points="155.77 9.9 162 20.51 168.22 31.11 181.93 31.11 175.71 20.51 169.48 9.9 155.77 9.9"/><polygon class="cls-14" points="159.04 44.04 164.76 54.65 170.48 65.25 183.06 65.25 177.34 54.65 171.62 44.04 159.04 44.04"/><polygon class="cls-14" points="122.38 9.9 128.17 20.51 133.94 31.11 146.67 31.11 140.89 20.51 135.1 9.9 122.38 9.9"/><polygon class="cls-14" points="122.51 44.04 128.53 54.65 134.56 65.25 147.79 65.25 141.77 54.65 135.74 44.04 122.51 44.04"/><polygon class="cls-14" points="87.45 44.04 93.47 54.65 99.5 65.25 112.73 65.25 106.71 54.65 100.67 44.04 87.45 44.04"/><polygon class="cls-14" points="88.12 9.9 93.67 20.51 99.2 31.11 111.4 31.11 105.86 20.51 100.31 9.9 88.12 9.9"/><path class="cls-15" d="M409.59,230.23l-33.21-55.46a7.17,7.17,0,0,0-12.33,0l-33.19,55.46A7.19,7.19,0,0,0,337,241.11h66.39A7.19,7.19,0,0,0,409.59,230.23Z" transform="translate(-202.09 -171.26)"/><path class="cls-16" d="M402.85,237.62H337.6a4.46,4.46,0,0,1-3.83-6.76l32.62-54.51a4.46,4.46,0,0,1,7.66,0l32.63,54.51a4.47,4.47,0,0,1-3.83,6.76Zm-32.63-60.77a1.76,1.76,0,0,0-1.54.87l-32.63,54.51A1.8,1.8,0,0,0,337.6,235h65.25a1.77,1.77,0,0,0,1.56-.91,1.8,1.8,0,0,0,0-1.81l-32.63-54.51A1.76,1.76,0,0,0,370.22,176.85Z" transform="translate(-202.09 -171.26)"/><path class="cls-16" d="M369.91,188.14a3.47,3.47,0,0,0-3.06,3.68l1.51,25.66a1.86,1.86,0,0,0,3.72,0l1.52-25.81A3.38,3.38,0,0,0,369.91,188.14Z" transform="translate(-202.09 -171.26)"/><path class="cls-16" d="M373.6,225.91a3.38,3.38,0,1,1-3.38-3.38A3.38,3.38,0,0,1,373.6,225.91Z" transform="translate(-202.09 -171.26)"/><path class="cls-17" d="M286.26,282.32c0,.85-6.41,1.54-14.32,1.54s-14.32-.69-14.32-1.54,6.41-1.55,14.32-1.55S286.26,281.47,286.26,282.32Z" transform="translate(-202.09 -171.26)"/><rect class="cls-18" x="280.46" y="230.25" width="16.81" height="4.62" transform="translate(-235.36 245.02) rotate(-68.53)"/><path class="cls-19" d="M285.33,229.37l8,3.14c11.38,4.39,13.09,7.53,13.82,5.55,1-2.53,2.64-8.26-10.55-13.7l-8-3.14a1.14,1.14,0,0,0-1.49.64l-2.41,6A1.15,1.15,0,0,0,285.33,229.37Z" transform="translate(-202.09 -171.26)"/><rect class="cls-18" x="281.92" y="223.97" width="6.62" height="1.4" transform="translate(-231.51 234.58) rotate(-68.16)"/><rect class="cls-20" x="254.38" y="256.9" width="47.02" height="7.32" rx="3.38" transform="translate(-268.21 252.93) rotate(-68.59)"/><rect class="cls-21" x="283.24" y="234.47" width="4.86" height="12.53" rx="2.24" transform="translate(-244.8 247.6) rotate(-68.6)"/><rect class="cls-19" x="277.18" y="221.42" width="10.92" height="4.62" rx="2.13" transform="translate(-230.93 233.92) rotate(-68.59)"/><rect class="cls-21" x="256.74" y="262.06" width="36.52" height="0.63" rx="0.29" transform="translate(-271.68 251.48) rotate(-68.61)"/><rect class="cls-21" x="258.64" y="262.8" width="36.52" height="0.63" rx="0.29" transform="translate(-271.17 253.72) rotate(-68.61)"/><rect class="cls-21" x="260.55" y="263.55" width="36.52" height="0.63" rx="0.29" transform="translate(-270.77 255.73) rotate(-68.57)"/><path class="cls-17" d="M488.31,294.22c0,.83-6.28,1.51-14,1.51s-14-.68-14-1.51,6.28-1.52,14-1.52S488.31,293.38,488.31,294.22Z" transform="translate(-202.09 -171.26)"/><rect class="cls-22" x="457.45" y="259.79" width="5.57" height="9.76" transform="translate(-268.59 159.79) rotate(-37.09)"/><rect class="cls-20" x="443.16" y="225.65" width="6.81" height="41.86" rx="2.28" transform="translate(-260.45 147.88) rotate(-37.08)"/><rect class="cls-21" x="450.29" y="258.6" width="15.18" height="5.88" rx="2.58" transform="translate(-267.19 157.74) rotate(-37.09)"/><path class="cls-19" d="M449.7,277,475,257.9l9.82,13c2.1,2.78,1.14,18.44-3.35,21.83s-19.51.46-22.19-3.08Z" transform="translate(-202.09 -171.26)"/><path class="cls-23" d="M453.09,274.44,449.7,277l9.55,12.63c2.68,3.54,17.69,6.48,22.19,3.08,2.58-1.95,4-7.95,4.33-13.23C474.88,278.35,464,276.3,453.09,274.44Z" transform="translate(-202.09 -171.26)"/><path class="cls-21" d="M437.07,230.59h0a.28.28,0,0,1,.39,0l19.4,25.89a.28.28,0,0,1-.1.38h0a.28.28,0,0,1-.39,0L437,231A.29.29,0,0,1,437.07,230.59Z" transform="translate(-202.09 -171.26)"/><path class="cls-21" d="M435.48,231.78h0a.29.29,0,0,1,.4,0l19.39,25.89a.28.28,0,0,1-.09.38h0a.3.3,0,0,1-.4,0l-19.39-25.89A.3.3,0,0,1,435.48,231.78Z" transform="translate(-202.09 -171.26)"/><path class="cls-21" d="M433.88,233h0a.28.28,0,0,1,.39,0l19.4,25.89a.28.28,0,0,1-.09.38h0a.29.29,0,0,1-.4,0l-19.39-25.89A.27.27,0,0,1,433.88,233Z" transform="translate(-202.09 -171.26)"/></svg>